<?xml version="1.0" encoding="UTF-8"?>
<!DOCTYPE svg PUBLIC "-//W3C//DTD SVG 1.1//EN" "http://www.w3.org/Graphics/SVG/1.1/DTD/svg11.dtd">
<svg xmlns="http://www.w3.org/2000/svg" version="1.1" width="317px" height="54px" style="shape-rendering:geometricPrecision; text-rendering:geometricPrecision; image-rendering:optimizeQuality; fill-rule:evenodd; clip-rule:evenodd" xmlns:xlink="http://www.w3.org/1999/xlink">
<g><path style="opacity:1" fill="#fbfaf8" d="M -0.5,-0.5 C 63.5,-0.5 127.5,-0.5 191.5,-0.5C 191.365,1.5542 192.032,3.22086 193.5,4.5C 193.167,4.5 192.833,4.5 192.5,4.5C 191.883,4.61071 191.383,4.94404 191,5.5C 189.473,17.1232 189.139,28.7899 190,40.5C 190.628,45.6351 193.461,47.9685 198.5,47.5C 199.609,48.29 200.942,48.79 202.5,49C 198.369,51.669 194.035,52.169 189.5,50.5C 179.381,51.8407 169.381,52.8407 159.5,53.5C 106.167,53.5 52.8333,53.5 -0.5,53.5C -0.5,35.5 -0.5,17.5 -0.5,-0.5 Z"/></g>
<g><path style="opacity:1" fill="#faf9f8" d="M 191.5,-0.5 C 233.167,-0.5 274.833,-0.5 316.5,-0.5C 316.5,17.5 316.5,35.5 316.5,53.5C 264.167,53.5 211.833,53.5 159.5,53.5C 169.381,52.8407 179.381,51.8407 189.5,50.5C 194.035,52.169 198.369,51.669 202.5,49C 200.942,48.79 199.609,48.29 198.5,47.5C 204.176,47.6661 209.843,47.4994 215.5,47C 216.337,45.9887 216.67,44.8221 216.5,43.5C 211.537,44.254 206.537,44.5874 201.5,44.5C 201.5,42.1667 201.5,39.8333 201.5,37.5C 201.5,35.5 201.5,33.5 201.5,31.5C 201.5,30.1667 201.5,28.8333 201.5,27.5C 201.5,19.8333 201.5,12.1667 201.5,4.5C 199.517,4.15684 198.183,4.82351 197.5,6.5C 195.72,7.98989 195.054,9.98989 195.5,12.5C 194.305,12.1344 193.639,11.301 193.5,10C 194.029,8.44107 194.696,6.94107 195.5,5.5C 195.043,4.70245 194.376,4.36912 193.5,4.5C 192.032,3.22086 191.365,1.5542 191.5,-0.5 Z"/></g>
<g><path style="opacity:1" fill="#523a39" d="M 131.5,1.5 C 133.337,1.63945 133.67,2.30612 132.5,3.5C 131.702,3.04311 131.369,2.37644 131.5,1.5 Z"/></g>
<g><path style="opacity:1" fill="#b81825" d="M 141.5,6.5 C 139.173,8.03028 136.84,9.69695 134.5,11.5C 133.549,10.0813 133.216,8.41467 133.5,6.5C 136.167,6.5 138.833,6.5 141.5,6.5 Z"/></g>
<g><path style="opacity:1" fill="#606b62" d="M 201.5,27.5 C 199.883,26.4107 199.05,24.744 199,22.5C 198.329,23.2524 197.496,23.5858 196.5,23.5C 195.54,20.235 195.54,16.9017 196.5,13.5C 198.591,11.4581 198.924,9.12476 197.5,6.5C 198.183,4.82351 199.517,4.15684 201.5,4.5C 201.5,12.1667 201.5,19.8333 201.5,27.5 Z"/></g>
<g><path style="opacity:1" fill="#518d48" d="M 79.5,9.5 C 79.8333,9.5 80.1667,9.5 80.5,9.5C 80.9175,10.2216 81.5842,10.7216 82.5,11C 79.4459,11.8214 76.4459,11.6548 73.5,10.5C 75.396,9.53443 77.396,9.2011 79.5,9.5 Z"/></g>
<g><path style="opacity:1" fill="#335c6a" d="M 197.5,6.5 C 198.924,9.12476 198.591,11.4581 196.5,13.5C 196.5,12.8333 196.167,12.5 195.5,12.5C 195.054,9.98989 195.72,7.98989 197.5,6.5 Z"/></g>
<g><path style="opacity:1" fill="#414240" d="M 192.5,4.5 C 192.833,4.5 193.167,4.5 193.5,4.5C 194.376,4.36912 195.043,4.70245 195.5,5.5C 194.696,6.94107 194.029,8.44107 193.5,10C 193.639,11.301 194.305,12.1344 195.5,12.5C 195.538,15.1813 194.871,17.6813 193.5,20C 195.664,22.7812 195.83,25.6145 194,28.5C 193.501,32.1516 193.335,35.8183 193.5,39.5C 192.778,39.0825 192.278,38.4158 192,37.5C 191.417,26.4877 191.584,15.4877 192.5,4.5 Z"/></g>
<g><path style="opacity:1" fill="#b1570e" d="M 71.5,8.5 C 70.1993,10.6222 67.866,12.2889 64.5,13.5C 65.1667,13.8333 65.8333,14.1667 66.5,14.5C 65.8333,15.8333 65.1667,17.1667 64.5,18.5C 68.3605,19.5976 68.3605,20.4309 64.5,21C 65.8333,21.3333 67.1667,21.6667 68.5,22C 66.5594,22.7429 64.7261,22.5762 63,21.5C 62.8195,18.3054 62.3195,15.3054 61.5,12.5C 61.2865,10.8561 61.6198,9.35613 62.5,8C 65.6965,7.19549 68.6965,7.36216 71.5,8.5 Z"/></g>
<g><path style="opacity:1" fill="#d87623" d="M 71.5,8.5 C 71.5,13.5 71.5,18.5 71.5,23.5C 68.1667,23.5 64.8333,23.5 61.5,23.5C 61.5,19.8333 61.5,16.1667 61.5,12.5C 62.3195,15.3054 62.8195,18.3054 63,21.5C 64.7261,22.5762 66.5594,22.7429 68.5,22C 67.1667,21.6667 65.8333,21.3333 64.5,21C 68.3605,20.4309 68.3605,19.5976 64.5,18.5C 65.1667,17.1667 65.8333,15.8333 66.5,14.5C 65.8333,14.1667 65.1667,13.8333 64.5,13.5C 67.866,12.2889 70.1993,10.6222 71.5,8.5 Z"/></g>
<g><path style="opacity:1" fill="#b18f86" d="M 58.5,15.5 C 58.8064,18.3854 58.4731,21.0521 57.5,23.5C 57.9577,20.6062 57.291,18.1062 55.5,16C 56.448,15.5172 57.448,15.3505 58.5,15.5 Z"/></g>
<g><path style="opacity:1" fill="#883f13" d="M 287.5,12.5 C 290.253,14.3632 291.586,16.6965 291.5,19.5C 290.167,19.5 288.833,19.5 287.5,19.5C 287.5,21.1667 287.5,22.8333 287.5,24.5C 284.723,22.0495 282.723,19.0495 281.5,15.5C 283.5,15.5 285.5,15.5 287.5,15.5C 287.5,14.5 287.5,13.5 287.5,12.5 Z"/></g>
<g><path style="opacity:1" fill="#c15359" d="M 141.5,6.5 C 142.927,8.1484 143.76,10.1484 144,12.5C 144.825,22.3422 144.658,32.0089 143.5,41.5C 143.737,40.209 143.404,39.209 142.5,38.5C 141.594,29.7911 141.261,21.1245 141.5,12.5C 139.833,12.5 138.167,12.5 136.5,12.5C 135.833,12.1667 135.167,11.8333 134.5,11.5C 136.84,9.69695 139.173,8.03028 141.5,6.5 Z"/></g>
<g><path style="opacity:1" fill="#8fb5c8" d="M 195.5,12.5 C 196.167,12.5 196.5,12.8333 196.5,13.5C 195.54,16.9017 195.54,20.235 196.5,23.5C 196.5,24.5 196.5,25.5 196.5,26.5C 195.167,28.8333 195.167,31.1667 196.5,33.5C 196.5,34.5 196.5,35.5 196.5,36.5C 195.232,38.6702 195.232,40.8368 196.5,43C 195.906,43.4643 195.239,43.631 194.5,43.5C 194.167,42.1667 193.833,40.8333 193.5,39.5C 193.335,35.8183 193.501,32.1516 194,28.5C 195.83,25.6145 195.664,22.7812 193.5,20C 194.871,17.6813 195.538,15.1813 195.5,12.5 Z"/></g>
<g><path style="opacity:1" fill="#776236" d="M 291.5,19.5 C 292.756,19.4614 293.756,19.9614 294.5,21C 293.963,25.5924 291.629,27.0924 287.5,25.5C 287.5,25.1667 287.5,24.8333 287.5,24.5C 287.5,22.8333 287.5,21.1667 287.5,19.5C 288.833,19.5 290.167,19.5 291.5,19.5 Z"/></g>
<g><path style="opacity:1" fill="#852a21" d="M 130.5,6.5 C 134.167,5.16667 137.833,5.16667 141.5,6.5C 138.833,6.5 136.167,6.5 133.5,6.5C 133.216,8.41467 133.549,10.0813 134.5,11.5C 133.585,20.4596 133.252,29.4596 133.5,38.5C 133.5,41.5 133.5,44.5 133.5,47.5C 133.167,47.5 132.833,47.5 132.5,47.5C 131.644,35.3218 131.644,23.1552 132.5,11C 132.431,9.01448 131.765,7.51448 130.5,6.5 Z"/></g>
<g><path style="opacity:1" fill="#ea8531" d="M 278.5,10.5 C 278.75,12.674 279.75,14.3406 281.5,15.5C 282.723,19.0495 284.723,22.0495 287.5,24.5C 287.5,24.8333 287.5,25.1667 287.5,25.5C 288.141,26.4822 288.807,27.4822 289.5,28.5C 289.376,29.1067 289.043,29.44 288.5,29.5C 284.863,25.0171 281.363,20.3504 278,15.5C 277.22,13.6131 277.387,11.9464 278.5,10.5 Z"/></g>
<g><path style="opacity:1" fill="#faf5ea" d="M 288.5,21.5 C 289.5,21.5 290.5,21.5 291.5,21.5C 290.754,25.31 289.754,25.31 288.5,21.5 Z"/></g>
<g><path style="opacity:1" fill="#4a3a2e" d="M 302.5,21.5 C 304.337,21.6395 304.67,22.3061 303.5,23.5C 302.702,23.0431 302.369,22.3764 302.5,21.5 Z"/></g>
<g><path style="opacity:1" fill="#562811" d="M 242.5,3.5 C 260.643,3.47547 269.476,12.4755 269,30.5C 265.576,45.8056 256.076,51.9722 240.5,49C 225.39,40.9234 221.556,29.09 229,13.5C 232.802,9.03664 237.302,5.70331 242.5,3.5 Z"/></g>
<g><path style="opacity:1" fill="#b61f25" d="M 257.5,15.5 C 257.5,15.8333 257.5,16.1667 257.5,16.5C 261.4,23.4637 261.4,30.4637 257.5,37.5C 257.167,37.5 256.833,37.5 256.5,37.5C 251.626,40.331 246.293,41.1643 240.5,40C 239.016,39.3378 237.683,38.5045 236.5,37.5C 234.799,34.3989 233.465,31.0655 232.5,27.5C 232.5,27.1667 232.5,26.8333 232.5,26.5C 232.475,22.5638 233.809,19.2305 236.5,16.5C 243.331,11.6014 250.331,11.268 257.5,15.5 Z"/></g>
<g><path style="opacity:1" fill="#f6f5f0" d="M 243.5,15.5 C 256.515,16.1909 260.349,22.5242 255,34.5C 248.647,39.0168 242.981,38.3502 238,32.5C 234.783,25.1019 236.617,19.4352 243.5,15.5 Z"/></g>
<g><path style="opacity:1" fill="#8e3d18" d="M 260.5,15.5 C 265.718,20.8171 266.884,27.1505 264,34.5C 263.303,36.5844 262.136,38.2511 260.5,39.5C 260.027,38.0937 259.027,37.427 257.5,37.5C 261.4,30.4637 261.4,23.4637 257.5,16.5C 258.609,16.4431 259.609,16.1098 260.5,15.5 Z"/></g>
<g><path style="opacity:1" fill="#f1d5bb" d="M 259.5,13.5 C 259.833,14.1667 260.167,14.8333 260.5,15.5C 259.609,16.1098 258.609,16.4431 257.5,16.5C 257.5,16.1667 257.5,15.8333 257.5,15.5C 257.5,14.1667 258.167,13.5 259.5,13.5 Z"/></g>
<g><path style="opacity:1" fill="#f7dcc5" d="M 234.5,13.5 C 236.048,13.8212 236.715,14.8212 236.5,16.5C 235.391,16.4431 234.391,16.1098 233.5,15.5C 233.833,14.8333 234.167,14.1667 234.5,13.5 Z"/></g>
<g><path style="opacity:1" fill="#933d1b" d="M 245.5,8.5 C 245.427,10.0269 246.094,11.0269 247.5,11.5C 249.048,11.1788 249.715,10.1788 249.5,8.5C 253.91,8.28723 257.243,9.9539 259.5,13.5C 258.167,13.5 257.5,14.1667 257.5,15.5C 250.331,11.268 243.331,11.6014 236.5,16.5C 236.715,14.8212 236.048,13.8212 234.5,13.5C 237.289,10.117 240.955,8.4503 245.5,8.5 Z"/></g>
<g><path style="opacity:1" fill="#f6d6b9" d="M 245.5,8.5 C 248.248,8.40171 248.914,9.40171 247.5,11.5C 246.094,11.0269 245.427,10.0269 245.5,8.5 Z"/></g>
<g><path style="opacity:1" fill="#88401c" d="M 233.5,15.5 C 234.391,16.1098 235.391,16.4431 236.5,16.5C 233.809,19.2305 232.475,22.5638 232.5,26.5C 230.402,25.0857 229.402,25.7524 229.5,28.5C 228.201,23.3649 229.534,19.0315 233.5,15.5 Z"/></g>
<g><path style="opacity:1" fill="#502710" d="M 80.5,9.5 C 80.1667,9.5 79.8333,9.5 79.5,9.5C 77.0521,8.52693 74.3854,8.1936 71.5,8.5C 68.6965,7.36216 65.6965,7.19549 62.5,8C 61.6198,9.35613 61.2865,10.8561 61.5,12.5C 61.5,16.1667 61.5,19.8333 61.5,23.5C 64.8333,23.5 68.1667,23.5 71.5,23.5C 73.5273,23.3379 75.5273,23.5045 77.5,24C 78.7736,24.9772 78.7736,25.8106 77.5,26.5C 75.1667,26.5 72.8333,26.5 70.5,26.5C 67.5,26.5 64.5,26.5 61.5,26.5C 61.2155,28.4147 61.5489,30.0813 62.5,31.5C 62.2641,34.6085 62.5975,37.6085 63.5,40.5C 63.5,42.1667 63.5,43.8333 63.5,45.5C 62.5041,45.5858 61.6708,45.2524 61,44.5C 59.1926,38.6311 58.3593,32.6311 58.5,26.5C 57.1667,26.5 55.8333,26.5 54.5,26.5C 54.5,25.5 54.5,24.5 54.5,23.5C 55.5,23.5 56.5,23.5 57.5,23.5C 58.4731,21.0521 58.8064,18.3854 58.5,15.5C 58.0713,11.5413 59.0713,8.04131 61.5,5C 68.2002,4.44689 74.8669,4.78022 81.5,6C 87.0297,8.25903 86.6964,9.42569 80.5,9.5 Z"/></g>
<g><path style="opacity:1" fill="#52240c" d="M 130.5,6.5 C 131.765,7.51448 132.431,9.01448 132.5,11C 131.644,23.1552 131.644,35.3218 132.5,47.5C 130.86,44.5122 130.026,41.1789 130,37.5C 129.267,27.1398 129.433,16.8065 130.5,6.5 Z"/></g>
<g><path style="opacity:1" fill="#592911" d="M 311.5,43.5 C 309.806,42.4726 308.473,41.1392 307.5,39.5C 307.167,38.5 306.5,37.8333 305.5,37.5C 305.008,35.1815 304.008,33.1815 302.5,31.5C 298.221,25.9392 294.888,26.6059 292.5,33.5C 291.662,33.8417 291.328,34.5084 291.5,35.5C 287.604,39.6167 283.937,43.95 280.5,48.5C 279.386,47.277 279.219,45.9437 280,44.5C 282.615,40.2171 285.615,36.2171 289,32.5C 289.47,31.4232 289.303,30.4232 288.5,29.5C 289.043,29.44 289.376,29.1067 289.5,28.5C 288.807,27.4822 288.141,26.4822 287.5,25.5C 291.629,27.0924 293.963,25.5924 294.5,21C 293.756,19.9614 292.756,19.4614 291.5,19.5C 291.586,16.6965 290.253,14.3632 287.5,12.5C 285.996,9.30329 284.33,8.96996 282.5,11.5C 281.566,12.5676 281.232,13.901 281.5,15.5C 279.75,14.3406 278.75,12.674 278.5,10.5C 280.27,9.23599 281.937,7.73599 283.5,6C 284.5,5.33333 285.5,5.33333 286.5,6C 290.52,9.88529 294.186,14.052 297.5,18.5C 300.817,14.5452 303.651,10.2118 306,5.5C 307.545,4.17875 308.711,4.51208 309.5,6.5C 306.619,11.7647 303.619,16.9313 300.5,22C 304.203,27.9022 308.036,33.7356 312,39.5C 312.765,41.0657 312.598,42.3991 311.5,43.5 Z"/></g>
<g><path style="opacity:1" fill="#6b6842" d="M 287.5,12.5 C 287.5,13.5 287.5,14.5 287.5,15.5C 285.5,15.5 283.5,15.5 281.5,15.5C 281.232,13.901 281.566,12.5676 282.5,11.5C 284.33,8.96996 285.996,9.30329 287.5,12.5 Z"/></g>
<g><path style="opacity:1" fill="#3f322e" d="M 296.5,12.5 C 298.337,12.6395 298.67,13.3061 297.5,14.5C 296.702,14.0431 296.369,13.3764 296.5,12.5 Z"/></g>
<g><path style="opacity:1" fill="#e2e5d0" d="M 282.5,11.5 C 284.298,10.5371 285.632,11.2038 286.5,13.5C 285.311,14.4287 283.978,14.762 282.5,14.5C 282.5,13.5 282.5,12.5 282.5,11.5 Z"/></g>
<g><path style="opacity:1" fill="#443d38" d="M 80.5,24.5 C 82.337,24.6395 82.6704,25.3061 81.5,26.5C 80.7025,26.0431 80.3691,25.3764 80.5,24.5 Z"/></g>
<g><path style="opacity:1" fill="#db767a" d="M 134.5,11.5 C 135.167,11.8333 135.833,12.1667 136.5,12.5C 137.444,21.4867 137.944,30.4867 138,39.5C 137.346,38.3044 136.846,38.3044 136.5,39.5C 137.689,40.4287 139.022,40.762 140.5,40.5C 140.22,31.1136 140.553,21.7803 141.5,12.5C 141.261,21.1245 141.594,29.7911 142.5,38.5C 142.532,43.2129 140.199,44.7129 135.5,43C 134.901,41.3775 134.234,39.8775 133.5,38.5C 133.252,29.4596 133.585,20.4596 134.5,11.5 Z"/></g>
<g><path style="opacity:1" fill="#c74735" d="M 136.5,12.5 C 138.167,12.5 139.833,12.5 141.5,12.5C 140.553,21.7803 140.22,31.1136 140.5,40.5C 139.022,40.762 137.689,40.4287 136.5,39.5C 136.846,38.3044 137.346,38.3044 138,39.5C 137.944,30.4867 137.444,21.4867 136.5,12.5 Z"/></g>
<g><path style="opacity:1" fill="#ecdaca" d="M 232.5,26.5 C 232.5,26.8333 232.5,27.1667 232.5,27.5C 231.609,28.1098 230.609,28.4431 229.5,28.5C 229.402,25.7524 230.402,25.0857 232.5,26.5 Z"/></g>
<g><path style="opacity:1" fill="#f5dbc6" d="M 262.5,25.5 C 264.465,25.9483 264.798,26.9483 263.5,28.5C 261.481,27.8671 261.147,26.8671 262.5,25.5 Z"/></g>
<g><path style="opacity:1" fill="#562911" d="M 40.5,44.5 C 40.81,41.2869 40.4767,38.2869 39.5,35.5C 39.1667,35.5 38.8333,35.5 38.5,35.5C 37.5,35.5 36.5,35.5 35.5,35.5C 34.4168,35.5394 33.4168,35.8728 32.5,36.5C 31.8182,35.7573 31.1515,35.0906 30.5,34.5C 25.1667,34.5 19.8333,34.5 14.5,34.5C 14.665,37.8499 14.4983,41.1832 14,44.5C 12.9887,45.3366 11.8221,45.67 10.5,45.5C 10.5524,41.8019 10.8857,38.1352 11.5,34.5C 10.1266,34.6567 8.79323,34.49 7.5,34C 6.54943,33.2825 6.38277,32.4491 7,31.5C 8.82541,30.8971 10.6587,30.2304 12.5,29.5C 14.8742,20.2496 19.2075,12.0829 25.5,5C 30.0273,4.35035 33.194,6.18368 35,10.5C 40.822,21.4545 43.6554,33.1211 43.5,45.5C 42.209,45.7373 41.209,45.404 40.5,44.5 Z"/></g>
<g><path style="opacity:1" fill="#f19136" d="M 36.5,22.5 C 37.9279,25.3033 38.5946,28.3033 38.5,31.5C 37.1667,31.5 35.8333,31.5 34.5,31.5C 33.5442,30.3406 32.5442,29.1739 31.5,28C 31.944,24.8818 33.6107,23.0485 36.5,22.5 Z"/></g>
<g><path style="opacity:1" fill="#e98325" d="M 25.5,18.5 C 27.2972,19.7298 29.2972,20.3964 31.5,20.5C 31.8176,23.4815 30.8176,25.8148 28.5,27.5C 26.6896,24.855 25.6896,21.855 25.5,18.5 Z"/></g>
<g><path style="opacity:1" fill="#f8f3ef" d="M 21.5,15.5 C 22.1667,15.5 22.8333,15.5 23.5,15.5C 23.427,17.0269 24.0937,18.0269 25.5,18.5C 25.6896,21.855 26.6896,24.855 28.5,27.5C 28.5,28.8333 28.5,30.1667 28.5,31.5C 26.1667,31.5 23.8333,31.5 21.5,31.5C 23.0781,29.6824 22.5781,28.6824 20,28.5C 18.6739,28.7549 17.6739,29.4216 17,30.5C 16.5357,29.9056 16.369,29.2389 16.5,28.5C 17.5794,23.9266 19.2461,19.5933 21.5,15.5 Z"/></g>
<g><path style="opacity:1" fill="#c4381b" d="M 27.5,8.5 C 27.8333,8.5 28.1667,8.5 28.5,8.5C 27.8594,11.221 27.3594,13.8877 27,16.5C 29.7269,17.7979 32.5602,18.7979 35.5,19.5C 36.1098,20.391 36.4431,21.391 36.5,22.5C 33.6107,23.0485 31.944,24.8818 31.5,28C 32.5442,29.1739 33.5442,30.3406 34.5,31.5C 32.5,31.5 30.5,31.5 28.5,31.5C 28.5,30.1667 28.5,28.8333 28.5,27.5C 30.8176,25.8148 31.8176,23.4815 31.5,20.5C 29.2972,20.3964 27.2972,19.7298 25.5,18.5C 24.0937,18.0269 23.427,17.0269 23.5,15.5C 24.8278,13.2067 26.1611,10.8733 27.5,8.5 Z"/></g>
<g><path style="opacity:1" fill="#f48f30" d="M 28.5,8.5 C 31.5684,11.622 33.9017,15.2886 35.5,19.5C 32.5602,18.7979 29.7269,17.7979 27,16.5C 27.3594,13.8877 27.8594,11.221 28.5,8.5 Z"/></g>
<g><path style="opacity:1" fill="#e7803d" d="M 27.5,8.5 C 26.1611,10.8733 24.8278,13.2067 23.5,15.5C 22.8333,15.5 22.1667,15.5 21.5,15.5C 22.8291,12.4539 24.8291,10.1206 27.5,8.5 Z"/></g>
<g><path style="opacity:1" fill="#c56968" d="M 70.5,26.5 C 72.8333,26.5 75.1667,26.5 77.5,26.5C 76.4019,27.397 76.4019,28.2303 77.5,29C 75.1261,29.7432 73.1261,29.2432 71.5,27.5C 70.8333,27.5 70.5,27.1667 70.5,26.5 Z"/></g>
<g><path style="opacity:1" fill="#6c594f" d="M 9.5,27.5 C 11.337,27.6395 11.6704,28.3061 10.5,29.5C 9.70245,29.0431 9.36912,28.3764 9.5,27.5 Z"/></g>
<g><path style="opacity:1" fill="#5a9356" d="M 70.5,26.5 C 70.5,27.1667 70.8333,27.5 71.5,27.5C 72.4375,32.8543 72.4375,38.1876 71.5,43.5C 68.8556,44.2951 66.1889,44.9618 63.5,45.5C 63.5,43.8333 63.5,42.1667 63.5,40.5C 65.6702,41.768 67.8368,41.768 70,40.5C 69.7311,37.5701 69.7311,34.5701 70,31.5C 68.7978,33.6775 68.2978,36.0108 68.5,38.5C 64.3825,38.7367 63.0491,37.07 64.5,33.5C 64.2528,32.2867 63.5862,31.62 62.5,31.5C 61.5489,30.0813 61.2155,28.4147 61.5,26.5C 64.5,26.5 67.5,26.5 70.5,26.5 Z"/></g>
<g><path style="opacity:1" fill="#398437" d="M 244.5,20.5 C 252.571,21.0929 254.571,24.9262 250.5,32C 243,33.8333 240.167,31 242,23.5C 243.045,22.6266 243.878,21.6266 244.5,20.5 Z"/></g>
<g><path style="opacity:1" fill="#3e3f15" d="M 245.5,25.5 C 248.957,25.6672 249.29,26.6672 246.5,28.5C 245.614,27.675 245.281,26.675 245.5,25.5 Z"/></g>
<g><path style="opacity:1" fill="#ac6b64" d="M 16.5,28.5 C 16.369,29.2389 16.5357,29.9056 17,30.5C 17.6739,29.4216 18.6739,28.7549 20,28.5C 22.5781,28.6824 23.0781,29.6824 21.5,31.5C 19.5,31.5 17.5,31.5 15.5,31.5C 15.2627,30.209 15.596,29.209 16.5,28.5 Z"/></g>
<g><path style="opacity:1" fill="#7a4f21" d="M 302.5,31.5 C 302.179,33.0481 301.179,33.7148 299.5,33.5C 299.5,35.5 298.5,36.5 296.5,36.5C 295.167,35.5 293.833,34.5 292.5,33.5C 294.888,26.6059 298.221,25.9392 302.5,31.5 Z"/></g>
<g><path style="opacity:1" fill="#592c16" d="M 109.5,40.5 C 110.209,41.404 111.209,41.7373 112.5,41.5C 116.938,42.5749 118.938,40.9083 118.5,36.5C 119.167,36.5 119.833,36.5 120.5,36.5C 121.845,41.8688 119.511,44.8688 113.5,45.5C 111.022,45.2283 108.689,44.5616 106.5,43.5C 102.99,41.6425 100.157,38.9759 98,35.5C 97.5046,38.5314 97.6713,41.5314 98.5,44.5C 97.603,45.5981 96.7697,45.5981 96,44.5C 92.0173,33.1755 91.684,21.8422 95,10.5C 104.477,0.684725 113.144,1.35139 121,12.5C 123.906,24.3513 119.406,31.6847 107.5,34.5C 99.9973,31.1594 98.9973,32.3261 104.5,38C 106.078,39.0945 107.745,39.9278 109.5,40.5 Z"/></g>
<g><path style="opacity:1" fill="#e58120" d="M 102.5,7.5 C 113.167,6.34623 118.667,11.0129 119,21.5C 116.041,29.2296 110.541,32.0629 102.5,30C 93.247,22.4563 93.247,14.9563 102.5,7.5 Z"/></g>
<g><path style="opacity:1" fill="#8b3f1a" d="M 102.5,10.5 C 115.473,9.30571 119.14,14.4724 113.5,26C 103.14,30.3175 98.3066,26.8175 99,15.5C 99.9973,13.6769 101.164,12.0103 102.5,10.5 Z"/></g>
<g><path style="opacity:1" fill="#cea492" d="M 106.5,23.5 C 110.774,25.9572 110.441,26.7906 105.5,26C 106.252,25.3292 106.586,24.4959 106.5,23.5 Z"/></g>
<g><path style="opacity:1" fill="#b11d1c" d="M 111.5,18.5 C 111.5,19.1667 111.5,19.8333 111.5,20.5C 110.183,20.821 108.849,21.1543 107.5,21.5C 105.734,21.5658 104.734,20.7324 104.5,19C 106.41,14.5957 108.744,14.429 111.5,18.5 Z"/></g>
<g><path style="opacity:1" fill="#cd9b85" d="M 111.5,20.5 C 111.5,19.8333 111.5,19.1667 111.5,18.5C 113.598,17.0857 114.598,17.7524 114.5,20.5C 113.5,20.5 112.5,20.5 111.5,20.5 Z"/></g>
<g><path style="opacity:1" fill="#be9874" d="M 105.5,11.5 C 106.978,11.238 108.311,11.5713 109.5,12.5C 107.537,15.1939 106.203,14.8606 105.5,11.5 Z"/></g>
<g><path style="opacity:1" fill="#395a68" d="M 196.5,26.5 C 199.139,27.7058 199.972,29.7058 199,32.5C 198.329,33.2524 197.496,33.5858 196.5,33.5C 195.167,31.1667 195.167,28.8333 196.5,26.5 Z"/></g>
<g><path style="opacity:1" fill="#913e1b" d="M 232.5,27.5 C 233.465,31.0655 234.799,34.3989 236.5,37.5C 235.209,37.2627 234.209,37.596 233.5,38.5C 231.544,36.0974 229.877,33.4308 228.5,30.5C 228.863,29.8165 229.196,29.1499 229.5,28.5C 230.609,28.4431 231.609,28.1098 232.5,27.5 Z"/></g>
<g><path style="opacity:1" fill="#eae9d7" d="M 299.5,33.5 C 298.5,33.5 297.5,33.5 296.5,33.5C 296.665,29.1362 297.998,28.6362 300.5,32C 299.944,32.3826 299.611,32.8826 299.5,33.5 Z"/></g>
<g><path style="opacity:1" fill="#8c8161" d="M 201.5,27.5 C 201.5,28.8333 201.5,30.1667 201.5,31.5C 199.084,33.7051 199.084,35.7051 201.5,37.5C 201.5,39.8333 201.5,42.1667 201.5,44.5C 200.365,43.8973 199.365,43.5639 198.5,43.5C 200.144,40.3968 199.477,38.0635 196.5,36.5C 196.5,35.5 196.5,34.5 196.5,33.5C 197.496,33.5858 198.329,33.2524 199,32.5C 199.972,29.7058 199.139,27.7058 196.5,26.5C 196.5,25.5 196.5,24.5 196.5,23.5C 197.496,23.5858 198.329,23.2524 199,22.5C 199.05,24.744 199.883,26.4107 201.5,27.5 Z"/></g>
<g><path style="opacity:1" fill="#e49235" d="M 120.5,36.5 C 119.833,36.5 119.167,36.5 118.5,36.5C 113.654,35.0211 111.654,36.6878 112.5,41.5C 111.209,41.7373 110.209,41.404 109.5,40.5C 110.12,35.047 113.12,32.8803 118.5,34C 119.381,34.7083 120.047,35.5416 120.5,36.5 Z"/></g>
<g><path style="opacity:1" fill="#396068" d="M 201.5,31.5 C 201.5,33.5 201.5,35.5 201.5,37.5C 199.084,35.7051 199.084,33.7051 201.5,31.5 Z"/></g>
<g><path style="opacity:1" fill="#502a13" d="M 157.5,6.5 C 163.345,6.15097 169.012,6.9843 174.5,9C 181.742,13.9739 182.409,19.8072 176.5,26.5C 180.225,30.459 181.392,35.1257 180,40.5C 173.396,47.5124 165.729,49.1791 157,45.5C 153.525,32.3969 153.691,19.3969 157.5,6.5 Z"/></g>
<g><path style="opacity:1" fill="#f5f6f2" d="M 172.5,28.5 C 177.571,31.166 178.738,35.166 176,40.5C 175.329,41.2524 174.496,41.5858 173.5,41.5C 172.515,37.3656 172.182,33.0323 172.5,28.5 Z"/></g>
<g><path style="opacity:1" fill="#587f31" d="M 167.5,10.5 C 168.959,10.4326 170.292,10.7659 171.5,11.5C 171.5,15.1667 171.5,18.8333 171.5,22.5C 170.5,22.5 169.5,22.5 168.5,22.5C 169.179,24.6682 170.179,26.6682 171.5,28.5C 171.57,30.6656 170.904,30.9989 169.5,29.5C 168.167,30.5 168.167,31.5 169.5,32.5C 170.086,32.2907 170.586,31.9574 171,31.5C 171.495,33.4727 171.662,35.4727 171.5,37.5C 167.5,38.1667 167.5,38.8333 171.5,39.5C 171.5,40.5 171.5,41.5 171.5,42.5C 170.295,43.6857 168.961,43.6857 167.5,42.5C 167.5,37.5 167.5,32.5 167.5,27.5C 167.5,25.8333 167.5,24.1667 167.5,22.5C 167.5,18.5 167.5,14.5 167.5,10.5 Z"/></g>
<g><path style="opacity:1" fill="#a9c7a4" d="M 171.5,11.5 C 172.492,11.3284 173.158,11.6618 173.5,12.5C 172.517,16.2984 172.183,20.2984 172.5,24.5C 172.5,25.8333 172.5,27.1667 172.5,28.5C 172.182,33.0323 172.515,37.3656 173.5,41.5C 173.158,42.3382 172.492,42.6716 171.5,42.5C 171.5,41.5 171.5,40.5 171.5,39.5C 167.5,38.8333 167.5,38.1667 171.5,37.5C 171.662,35.4727 171.495,33.4727 171,31.5C 170.586,31.9574 170.086,32.2907 169.5,32.5C 168.167,31.5 168.167,30.5 169.5,29.5C 170.904,30.9989 171.57,30.6656 171.5,28.5C 170.179,26.6682 169.179,24.6682 168.5,22.5C 169.5,22.5 170.5,22.5 171.5,22.5C 171.5,18.8333 171.5,15.1667 171.5,11.5 Z"/></g>
<g><path style="opacity:1" fill="#987320" d="M 161.5,25.5 C 161.833,25.5 162.167,25.5 162.5,25.5C 164.949,27.6936 164.949,30.027 162.5,32.5C 165.167,34.8333 165.167,37.1667 162.5,39.5C 163.309,41.0709 163.643,42.7376 163.5,44.5C 162.508,44.6716 161.842,44.3382 161.5,43.5C 161.84,40.8559 161.173,38.5225 159.5,36.5C 162.167,33.8333 162.167,31.1667 159.5,28.5C 160.612,27.7348 161.279,26.7348 161.5,25.5 Z"/></g>
<g><path style="opacity:1" fill="#c73c18" d="M 162.5,10.5 C 164.05,9.28006 165.716,9.28006 167.5,10.5C 167.5,14.5 167.5,18.5 167.5,22.5C 164.833,24.1667 164.833,25.8333 167.5,27.5C 167.5,32.5 167.5,37.5 167.5,42.5C 166.817,44.1765 165.483,44.8432 163.5,44.5C 163.643,42.7376 163.309,41.0709 162.5,39.5C 165.167,37.1667 165.167,34.8333 162.5,32.5C 164.949,30.027 164.949,27.6936 162.5,25.5C 162.5,24.8333 162.5,24.1667 162.5,23.5C 165.167,21.8333 165.167,20.1667 162.5,18.5C 162.5,17.5 162.5,16.5 162.5,15.5C 164.851,14.0839 164.851,12.4172 162.5,10.5 Z"/></g>
<g><path style="opacity:1" fill="#e88927" d="M 167.5,22.5 C 167.5,24.1667 167.5,25.8333 167.5,27.5C 164.833,25.8333 164.833,24.1667 167.5,22.5 Z"/></g>
<g><path style="opacity:1" fill="#d99236" d="M 162.5,18.5 C 165.167,20.1667 165.167,21.8333 162.5,23.5C 162.5,21.8333 162.5,20.1667 162.5,18.5 Z"/></g>
<g><path style="opacity:1" fill="#c2f0c4" d="M 168.5,15.5 C 170.337,15.6395 170.67,16.3061 169.5,17.5C 168.702,17.0431 168.369,16.3764 168.5,15.5 Z"/></g>
<g><path style="opacity:1" fill="#f6f6f3" d="M 173.5,12.5 C 176.917,15.5834 177.417,19.25 175,23.5C 174.329,24.2524 173.496,24.5858 172.5,24.5C 172.183,20.2984 172.517,16.2984 173.5,12.5 Z"/></g>
<g><path style="opacity:1" fill="#d9902e" d="M 162.5,10.5 C 164.851,12.4172 164.851,14.0839 162.5,15.5C 162.5,13.8333 162.5,12.1667 162.5,10.5 Z"/></g>
<g><path style="opacity:1" fill="#6b611a" d="M 162.5,10.5 C 162.5,12.1667 162.5,13.8333 162.5,15.5C 162.5,16.5 162.5,17.5 162.5,18.5C 162.5,20.1667 162.5,21.8333 162.5,23.5C 162.5,24.1667 162.5,24.8333 162.5,25.5C 162.167,25.5 161.833,25.5 161.5,25.5C 161.672,23.5082 161.005,21.8415 159.5,20.5C 161.005,19.1585 161.672,17.4918 161.5,15.5C 160.5,15.5 159.5,15.5 158.5,15.5C 158.857,13.4109 159.523,11.4109 160.5,9.5C 161.183,9.86273 161.85,10.1961 162.5,10.5 Z"/></g>
<g><path style="opacity:1" fill="#3f6f29" d="M 158.5,15.5 C 159.5,15.5 160.5,15.5 161.5,15.5C 161.672,17.4918 161.005,19.1585 159.5,20.5C 161.005,21.8415 161.672,23.5082 161.5,25.5C 161.279,26.7348 160.612,27.7348 159.5,28.5C 162.167,31.1667 162.167,33.8333 159.5,36.5C 161.173,38.5225 161.84,40.8559 161.5,43.5C 159.716,42.4262 158.549,40.7596 158,38.5C 157.178,30.6554 157.344,22.9887 158.5,15.5 Z"/></g>
<g><path style="opacity:1" fill="#ec8a35" d="M 292.5,33.5 C 293.833,34.5 295.167,35.5 296.5,36.5C 297.443,39.1092 299.11,41.1092 301.5,42.5C 301.427,44.0269 302.094,45.0269 303.5,45.5C 303.5,46.1667 303.5,46.8333 303.5,47.5C 302.761,47.631 302.094,47.4643 301.5,47C 298.302,42.9739 294.968,39.1405 291.5,35.5C 291.328,34.5084 291.662,33.8417 292.5,33.5 Z"/></g>
<g><path style="opacity:1" fill="#69a167" d="M 15.5,35.5 C 17.924,35.1924 20.2573,35.5258 22.5,36.5C 21.3333,36.8333 20.1667,37.1667 19,37.5C 17.3189,37.3917 16.1522,36.7251 15.5,35.5 Z"/></g>
<g><path style="opacity:1" fill="#ee8523" d="M 30.5,34.5 C 31.1515,35.0906 31.8182,35.7573 32.5,36.5C 33.4168,35.8728 34.4168,35.5394 35.5,35.5C 34.6597,37.8525 33.3264,39.8525 31.5,41.5C 31.0074,39.1944 30.6741,36.861 30.5,34.5 Z"/></g>
<g><path style="opacity:1" fill="#883c15" d="M 302.5,31.5 C 304.008,33.1815 305.008,35.1815 305.5,37.5C 302.703,37.9666 301.369,39.6333 301.5,42.5C 299.11,41.1092 297.443,39.1092 296.5,36.5C 298.5,36.5 299.5,35.5 299.5,33.5C 301.179,33.7148 302.179,33.0481 302.5,31.5 Z"/></g>
<g><path style="opacity:1" fill="#e9cabd" d="M 236.5,37.5 C 236.737,38.791 236.404,39.791 235.5,40.5C 234.5,40.1667 233.833,39.5 233.5,38.5C 234.209,37.596 235.209,37.2627 236.5,37.5 Z"/></g>
<g><path style="opacity:1" fill="#eed8c6" d="M 257.5,37.5 C 259.027,37.427 260.027,38.0937 260.5,39.5C 258.402,40.9143 257.402,40.2476 257.5,37.5 Z"/></g>
<g><path style="opacity:1" fill="#f58823" d="M 38.5,35.5 C 38.8333,35.5 39.1667,35.5 39.5,35.5C 39.3059,38.3297 38.6392,40.9963 37.5,43.5C 36.5,43.5 35.5,43.5 34.5,43.5C 35.3994,40.605 36.7328,37.9384 38.5,35.5 Z"/></g>
<g><path style="opacity:1" fill="#92c58c" d="M 62.5,31.5 C 63.5862,31.62 64.2528,32.2867 64.5,33.5C 63.0491,37.07 64.3825,38.7367 68.5,38.5C 68.2978,36.0108 68.7978,33.6775 70,31.5C 69.7311,34.5701 69.7311,37.5701 70,40.5C 67.8368,41.768 65.6702,41.768 63.5,40.5C 62.5975,37.6085 62.2641,34.6085 62.5,31.5 Z"/></g>
<g><path style="opacity:1" fill="#775e31" d="M 305.5,37.5 C 306.5,37.8333 307.167,38.5 307.5,39.5C 307.625,42.6082 306.292,44.6082 303.5,45.5C 302.094,45.0269 301.427,44.0269 301.5,42.5C 301.369,39.6333 302.703,37.9666 305.5,37.5 Z"/></g>
<g><path style="opacity:1" fill="#537126" d="M 118.5,36.5 C 118.938,40.9083 116.938,42.5749 112.5,41.5C 111.654,36.6878 113.654,35.0211 118.5,36.5 Z"/></g>
<g><path style="opacity:1" fill="#6a5f5d" d="M 214.5,39.5 C 216.337,39.6395 216.67,40.3061 215.5,41.5C 214.702,41.0431 214.369,40.3764 214.5,39.5 Z"/></g>
<g><path style="opacity:1" fill="#eeefd5" d="M 303.5,39.5 C 306.742,39.4668 307.075,40.8002 304.5,43.5C 302.824,42.2724 302.491,40.9391 303.5,39.5 Z"/></g>
<g><path style="opacity:1" fill="#c83119" d="M 35.5,35.5 C 36.5,35.5 37.5,35.5 38.5,35.5C 36.7328,37.9384 35.3994,40.605 34.5,43.5C 33.5,43.5 32.5,43.5 31.5,43.5C 31.5,42.8333 31.5,42.1667 31.5,41.5C 33.3264,39.8525 34.6597,37.8525 35.5,35.5 Z"/></g>
<g><path style="opacity:1" fill="#dad0c8" d="M 106.5,43.5 C 104.94,43.5191 103.44,43.8524 102,44.5C 101.055,44.0946 100.388,43.428 100,42.5C 99.7216,43.4158 99.2216,44.0825 98.5,44.5C 97.6713,41.5314 97.5046,38.5314 98,35.5C 100.157,38.9759 102.99,41.6425 106.5,43.5 Z"/></g>
<g><path style="opacity:1" fill="#3f5863" d="M 196.5,36.5 C 199.477,38.0635 200.144,40.3968 198.5,43.5C 197.039,44.6857 195.705,44.6857 194.5,43.5C 195.239,43.631 195.906,43.4643 196.5,43C 195.232,40.8368 195.232,38.6702 196.5,36.5 Z"/></g>
<g><path style="opacity:1" fill="#dfad77" d="M 39.5,35.5 C 40.4767,38.2869 40.81,41.2869 40.5,44.5C 37.2869,44.81 34.2869,44.4767 31.5,43.5C 32.5,43.5 33.5,43.5 34.5,43.5C 35.5,43.5 36.5,43.5 37.5,43.5C 38.6392,40.9963 39.3059,38.3297 39.5,35.5 Z"/></g>
<g><path style="opacity:1" fill="#b42029" d="M 133.5,38.5 C 134.234,39.8775 134.901,41.3775 135.5,43C 140.199,44.7129 142.532,43.2129 142.5,38.5C 143.404,39.209 143.737,40.209 143.5,41.5C 143.643,43.2624 143.309,44.9291 142.5,46.5C 139.572,47.4841 136.572,47.8174 133.5,47.5C 133.5,44.5 133.5,41.5 133.5,38.5 Z"/></g>
<g><path style="opacity:1" fill="#923f18" d="M 236.5,37.5 C 237.683,38.5045 239.016,39.3378 240.5,40C 246.293,41.1643 251.626,40.331 256.5,37.5C 256.5,39.8333 256.5,42.1667 256.5,44.5C 254.801,44.6204 253.135,44.9537 251.5,45.5C 250.261,45.0576 249.261,44.3909 248.5,43.5C 247.5,42.1667 246.5,42.1667 245.5,43.5C 241.596,45.5991 238.263,44.5991 235.5,40.5C 236.404,39.791 236.737,38.791 236.5,37.5 Z"/></g>
<g><path style="opacity:1" fill="#ead2c8" d="M 248.5,43.5 C 247.5,46.1667 246.5,46.1667 245.5,43.5C 246.5,42.1667 247.5,42.1667 248.5,43.5 Z"/></g>
<g><path style="opacity:1" fill="#8f4422" d="M 307.5,39.5 C 308.473,41.1392 309.806,42.4726 311.5,43.5C 309.763,45.5497 307.763,47.383 305.5,49C 304.184,49.5281 303.517,49.0281 303.5,47.5C 303.5,46.8333 303.5,46.1667 303.5,45.5C 306.292,44.6082 307.625,42.6082 307.5,39.5 Z"/></g>
<g><path style="opacity:1" fill="#522712" d="M 192.5,4.5 C 191.584,15.4877 191.417,26.4877 192,37.5C 192.278,38.4158 192.778,39.0825 193.5,39.5C 193.833,40.8333 194.167,42.1667 194.5,43.5C 195.705,44.6857 197.039,44.6857 198.5,43.5C 199.365,43.5639 200.365,43.8973 201.5,44.5C 206.537,44.5874 211.537,44.254 216.5,43.5C 216.67,44.8221 216.337,45.9887 215.5,47C 209.843,47.4994 204.176,47.6661 198.5,47.5C 193.461,47.9685 190.628,45.6351 190,40.5C 189.139,28.7899 189.473,17.1232 191,5.5C 191.383,4.94404 191.883,4.61071 192.5,4.5 Z"/></g>
</svg>
